<svg width="16" height="12" viewBox="0 0 16 12" xmlns="http://www.w3.org/2000/svg">
<path d="M13.5447 0.994568C12.5247 0.534568 11.4313 0.194568 10.288 0.00123436C10.2778 -0.000720367 10.2673 0.000539327 10.2579 0.00483924C10.2484 0.00913916 10.2406 0.0162666 10.2353 0.0252344C10.0953 0.271234 9.93935 0.591901 9.83002 0.845234C8.61741 0.664059 7.38462 0.664059 6.17202 0.845234C6.05024 0.564475 5.91291 0.290717 5.76068 0.0252344C5.75552 0.0161562 5.74772 0.00886753 5.73831 0.00434111C5.7289 -0.000185312 5.71833 -0.0017343 5.70802 -9.90399e-05C4.56535 0.193234 3.47202 0.533234 2.45135 0.993901C2.44257 0.997584 2.43512 1.00387 2.43002 1.0119C0.355349 4.0619 -0.213318 7.03657 0.0660152 9.9739C0.0667925 9.98109 0.0690256 9.98806 0.0725785 9.99436C0.0761315 10.0007 0.0809299 10.0062 0.0866819 10.0106C1.29761 10.8922 2.64824 11.5638 4.08202 11.9972C4.09201 12.0003 4.1027 12.0003 4.11269 11.9972C4.12268 11.9941 4.13151 11.9881 4.13802 11.9799C4.44602 11.5666 4.72068 11.1299 4.95535 10.6712C4.96935 10.6446 4.95602 10.6126 4.92802 10.6019C4.49735 10.4397 4.08007 10.244 3.68002 10.0166C3.67283 10.0125 3.66677 10.0066 3.66239 9.99962C3.658 9.9926 3.65543 9.9846 3.6549 9.97634C3.65438 9.96808 3.65591 9.95981 3.65936 9.95229C3.66281 9.94477 3.66808 9.93822 3.67468 9.93323C3.75868 9.87123 3.84268 9.80657 3.92268 9.7419C3.92988 9.73608 3.93856 9.73238 3.94774 9.73121C3.95692 9.73003 3.96625 9.73142 3.97468 9.73523C6.59268 10.9112 9.42802 10.9112 12.0153 9.73523C12.0238 9.7312 12.0332 9.72962 12.0425 9.73068C12.0519 9.73174 12.0607 9.7354 12.068 9.74123C12.148 9.80657 12.2313 9.87123 12.316 9.93323C12.3227 9.93812 12.328 9.94458 12.3316 9.95203C12.3352 9.95949 12.3368 9.96772 12.3364 9.97598C12.336 9.98423 12.3336 9.99226 12.3293 9.99934C12.3251 10.0064 12.3191 10.0123 12.312 10.0166C11.9133 10.2459 11.4987 10.4399 11.0633 10.6012C11.0567 10.6037 11.0506 10.6075 11.0455 10.6125C11.0404 10.6174 11.0364 10.6234 11.0338 10.63C11.0312 10.6367 11.0301 10.6438 11.0305 10.6509C11.0309 10.658 11.0327 10.6649 11.036 10.6712C11.276 11.1292 11.5507 11.5652 11.8527 11.9792C11.859 11.9877 11.8677 11.9941 11.8777 11.9974C11.8878 12.0008 11.8986 12.0009 11.9087 11.9979C13.3449 11.5657 14.6978 10.8938 15.91 10.0106C15.9159 10.0064 15.9209 10.0011 15.9246 9.99487C15.9283 9.98866 15.9306 9.98174 15.9313 9.97457C16.2647 6.57857 15.3727 3.6279 13.5653 1.01323C13.5609 1.00474 13.5536 0.998114 13.5447 0.994568ZM5.34668 8.18523C4.55868 8.18523 3.90868 7.47257 3.90868 6.59857C3.90868 5.7239 4.54602 5.0119 5.34668 5.0119C6.15335 5.0119 6.79735 5.7299 6.78468 6.59857C6.78468 7.47323 6.14735 8.18523 5.34668 8.18523ZM10.6633 8.18523C9.87468 8.18523 9.22535 7.47257 9.22535 6.59857C9.22535 5.7239 9.86202 5.0119 10.6633 5.0119C11.47 5.0119 12.114 5.7299 12.1013 6.59857C12.1013 7.47323 11.4707 8.18523 10.6633 8.18523Z"/>
</svg>
