<svg width="14" height="12" viewBox="0 0 14 12" xmlns="http://www.w3.org/2000/svg">
<path d="M1.91467 2.84275C1.92283 2.76159 1.91189 2.67965 1.88272 2.60348C1.85355 2.52731 1.80695 2.45902 1.74667 2.40408L0.501332 0.892748V0.666748H4.36667L7.35467 7.27008L9.98133 0.666748H13.6667V0.892748L12.602 1.92008C12.5569 1.95491 12.5221 2.00134 12.5013 2.05442C12.4805 2.10749 12.4745 2.16521 12.484 2.22141V9.77741C12.4745 9.83362 12.4805 9.89134 12.5013 9.94441C12.5221 9.99749 12.5569 10.0439 12.602 10.0787L13.642 11.1067V11.3334H8.41267V11.1074L9.49 10.0541C9.596 9.94741 9.596 9.91608 9.596 9.75341V3.64541L6.60133 11.3081H6.19733L2.71067 3.64541V8.78141C2.682 8.99675 2.75333 9.21475 2.904 9.37075L4.30467 11.0827V11.3081H0.333332V11.0827L1.73333 9.37075C1.80741 9.29345 1.86238 9.19991 1.89387 9.09758C1.92535 8.99525 1.93247 8.88698 1.91467 8.78141V2.84275Z"/>
</svg>
