<svg width="16" height="14" viewBox="0 0 16 14" xmlns="http://www.w3.org/2000/svg">
<path d="M15.262 2.29122C14.7053 2.53789 14.1073 2.70456 13.4787 2.77989C14.1273 2.39175 14.6126 1.78087 14.844 1.06122C14.2346 1.42321 13.5676 1.67802 12.872 1.81456C12.4043 1.31513 11.7847 0.984106 11.1095 0.872871C10.4344 0.761636 9.7414 0.876416 9.13816 1.19939C8.53492 1.52236 8.05518 2.03546 7.77343 2.65902C7.49169 3.28259 7.42369 3.98172 7.58 4.64789C6.34512 4.58589 5.13708 4.26492 4.03428 3.70583C2.93148 3.14673 1.95856 2.362 1.17866 1.40256C0.911998 1.86256 0.758664 2.39589 0.758664 2.96389C0.758367 3.47522 0.884286 3.97872 1.12525 4.42971C1.36621 4.8807 1.71477 5.26525 2.14 5.54922C1.64685 5.53353 1.16458 5.40028 0.733331 5.16055V5.20055C0.733281 5.91772 0.981353 6.61281 1.43545 7.16789C1.88955 7.72296 2.52171 8.10384 3.22466 8.24589C2.76719 8.3697 2.28756 8.38794 1.822 8.29922C2.02033 8.9163 2.40666 9.45591 2.92691 9.84251C3.44716 10.2291 4.07528 10.4433 4.72333 10.4552C3.62322 11.3188 2.26459 11.7873 0.865998 11.7852C0.618252 11.7853 0.370715 11.7708 0.124664 11.7419C1.54432 12.6547 3.19689 13.1391 4.88466 13.1372C10.598 13.1372 13.7213 8.40522 13.7213 4.30122C13.7213 4.16789 13.718 4.03322 13.712 3.89989C14.3195 3.46054 14.8439 2.91649 15.2607 2.29322L15.262 2.29122Z"/>
</svg>
